<svg width="40" height="40" viewBox="0 0 40 40" fill="none" xmlns="http://www.w3.org/2000/svg">
<path fill-rule="evenodd" clip-rule="evenodd" d="M35 0H5C2.2425 0 0 2.2425 0 5V35C0 37.7575 2.2425 40 5 40H20H27.5H35C37.7575 40 40 37.7575 40 35V5C40 2.2425 37.7575 0 35 0ZM17.085 19.0262C19.355 19.6662 20.4537 21.3737 20.4537 23.6837C20.4537 27.4225 17.3025 29.0262 13.9475 29.0262H5V10.625H13.7037C16.865 10.625 19.605 11.5187 19.605 15.1837C19.605 17.0425 18.7412 18.2375 17.085 19.0262ZM12.865 13.7662H9.0575V18.06H13.1712C14.6212 18.06 15.6462 17.4312 15.6462 15.8687C15.6462 14.1762 14.3287 13.7662 12.865 13.7662ZM9.05625 20.8337V25.9012H13.395C15.0462 25.9012 16.395 25.32 16.395 23.4612C16.395 21.5762 15.265 20.8337 13.4787 20.8337H9.05625ZM28.495 29.3749C31.6875 29.3749 33.755 27.9412 34.75 24.8937H31.51C31.1613 26.0312 29.7238 26.6324 28.6088 26.6324C26.4575 26.6324 25.3275 25.3762 25.3275 23.2412H34.9688C35.2738 18.9687 32.8938 15.3274 28.4938 15.3274C24.42 15.3274 21.655 18.3799 21.655 22.3787C21.655 26.5287 24.275 29.3749 28.495 29.3749ZM28.38 18.0924C30.2238 18.0924 31.1513 19.1724 31.3063 20.9387H25.3325C25.4538 19.1874 26.62 18.0924 28.38 18.0924ZM32.0687 11.5913H24.5837V13.4038H32.0687V11.5913Z" fill="url(#paint0_linear)"/>
<defs>
<linearGradient id="paint0_linear" x1="1.84985e-07" y1="18.3086" x2="40" y2="18.3086" gradientUnits="userSpaceOnUse">
<stop stop-color="#AA34C8"/>
<stop offset="1" stop-color="#80CEF6"/>
</linearGradient>
</defs>
</svg>
