<svg width="40" height="40" viewBox="0 0 40 40" fill="none" xmlns="http://www.w3.org/2000/svg">
<g clip-path="url(#clip0)">
<path d="M38.8299 1.07883C37.3661 -0.384598 34.4872 9.16794e-05 32.4255 9.16794e-05H7.4827C5.42164 9.16794e-05 2.5423 -0.384853 1.0785 1.07858C-0.384936 2.54229 -0.00010867 5.42174 -0.00010867 7.48288V32.4259C-0.00010867 34.4872 -0.384936 37.3663 1.0785 38.8298C2.54221 40.2935 5.42164 39.9086 7.4827 39.9086H13.3027C13.6834 39.9086 13.9695 39.8955 14.1599 39.8701C14.3503 39.8438 14.5407 39.7312 14.7314 39.5318C14.9221 39.3328 15.0171 39.0426 15.0171 38.6616C15.0171 38.6099 15.0126 38.0204 15.004 36.8946C14.9952 35.7684 14.9909 34.8765 14.9909 34.2182L14.3933 34.3222C14.0122 34.3914 13.5316 34.4218 12.9512 34.4131C12.3712 34.4044 11.7691 34.3439 11.1456 34.2313C10.5218 34.1185 9.94172 33.8588 9.40471 33.4521C8.86797 33.0447 8.48693 32.5122 8.2617 31.8542L8.00179 31.2562C7.82861 30.8582 7.55596 30.4163 7.18348 29.9317C6.811 29.4465 6.43434 29.1173 6.0533 28.9441L5.87138 28.8142C5.75026 28.7276 5.63769 28.6233 5.53367 28.5021C5.42983 28.3806 5.35193 28.2592 5.29997 28.1384C5.24801 28.0169 5.29114 27.9172 5.42983 27.8391C5.56852 27.7613 5.81942 27.7227 6.18335 27.7227L6.7028 27.8005C7.04934 27.8697 7.47779 28.0773 7.98905 28.424C8.49995 28.7703 8.91993 29.2206 9.24909 29.7747C9.64769 30.4851 10.1279 31.026 10.6911 31.3985C11.2539 31.7714 11.8213 31.9575 12.3928 31.9575C12.9643 31.9575 13.4579 31.9142 13.8738 31.828C14.2893 31.7411 14.679 31.6109 15.043 31.4377C15.1988 30.2773 15.6233 29.3848 16.3159 28.7613C15.3287 28.6573 14.4411 28.5016 13.6527 28.2936C12.8648 28.0855 12.0506 27.748 11.2106 27.2801C10.3703 26.8124 9.67317 26.2325 9.11887 25.5392C8.56465 24.846 8.10981 23.9367 7.75499 22.8111C7.39998 21.6849 7.22243 20.3857 7.22243 18.9135C7.22243 16.8178 7.90687 15.0334 9.27521 13.5612C8.63418 11.985 8.69469 10.2185 9.45694 8.26097C9.95929 8.10499 10.7042 8.22202 11.6915 8.61178C12.6789 9.00183 13.4018 9.33536 13.861 9.6121C14.3202 9.88893 14.6881 10.123 14.9653 10.3137C16.5766 9.86336 18.2393 9.63822 19.954 9.63822C21.6686 9.63822 23.3316 9.86336 24.9429 10.3137L25.9302 9.69018C26.606 9.27429 27.4027 8.89326 28.3208 8.54699C29.2389 8.20063 29.9402 8.10526 30.4255 8.26124C31.2047 10.2187 31.2744 11.9853 30.6329 13.5614C32.0012 15.0337 32.6858 16.8181 32.6858 18.9138C32.6858 20.3862 32.5083 21.6899 32.1533 22.8241C31.7985 23.9587 31.3398 24.8683 30.7764 25.5525C30.2136 26.2368 29.512 26.8123 28.672 27.2803C27.8319 27.7478 27.0177 28.086 26.2295 28.2934C25.4413 28.5014 24.5537 28.6578 23.5664 28.7618C24.4665 29.5409 24.9168 30.7704 24.9168 32.4509V38.6608C24.9168 38.9554 24.9598 39.1934 25.0464 39.3753C25.1336 39.5571 25.2719 39.6823 25.4624 39.7521C25.6537 39.8213 25.8218 39.8645 25.9694 39.8817C26.117 39.8991 26.3287 39.9078 26.6059 39.9078H32.4259C34.487 39.9078 37.3668 40.2935 38.8299 38.8298C40.2936 37.3661 39.9084 34.4858 39.9084 32.4248V7.48288C39.9082 5.42174 40.2933 2.54227 38.8299 1.07883Z" fill="url(#paint0_linear)"/>
</g>
<defs>
<linearGradient id="paint0_linear" x1="-0.045822" y1="18.2629" x2="39.9542" y2="18.2629" gradientUnits="userSpaceOnUse">
<stop stop-color="#AA34C8"/>
<stop offset="1" stop-color="#80CEF6"/>
</linearGradient>
<clipPath id="clip0">
<rect width="40" height="40" fill="white"/>
</clipPath>
</defs>
</svg>
