<svg width="40" height="40" viewBox="0 0 40 40" fill="none" xmlns="http://www.w3.org/2000/svg">
<path d="M37.046 0H2.95547C1.32308 0 0 1.28272 0 2.86591V37.1329C0 38.7162 1.32355 40 2.95547 40H37.046C38.678 40 39.9996 38.7153 39.9996 37.1329V2.86591C39.9996 1.28318 38.678 0 37.046 0ZM12.1267 33.4827H6.08309V15.4232H12.1267V33.4827ZM9.10552 12.956H9.06488C7.03818 12.956 5.7244 11.5699 5.7244 9.8347C5.7244 8.06448 7.07677 6.71602 9.14365 6.71602C11.2107 6.71602 12.4822 8.06411 12.5224 9.8347C12.5224 11.5703 11.2112 12.956 9.10552 12.956ZM33.9123 33.4827H27.8706V23.8203C27.8706 21.3924 26.9953 19.7357 24.8104 19.7357C23.1389 19.7357 22.1467 20.8533 21.711 21.9324C21.5496 22.3178 21.5096 22.8568 21.5096 23.3951V33.4823H15.469C15.469 33.4823 15.548 17.1167 15.469 15.4229H21.5105V17.9832C22.3125 16.753 23.7457 14.998 26.9541 14.998C30.9307 14.998 33.9123 17.5777 33.9123 23.1273V33.4827ZM21.4715 18.0406C21.4818 18.0237 21.4962 18.0033 21.5105 17.9835V18.0406H21.4715Z" fill="url(#paint0_linear)"/>
<defs>
<linearGradient id="paint0_linear" x1="1.84983e-07" y1="18.3086" x2="39.9996" y2="18.3086" gradientUnits="userSpaceOnUse">
<stop stop-color="#AA34C8"/>
<stop offset="1" stop-color="#80CEF6"/>
</linearGradient>
</defs>
</svg>
