<svg width="40" height="40" viewBox="0 0 40 40" fill="none" xmlns="http://www.w3.org/2000/svg">
<path fill-rule="evenodd" clip-rule="evenodd" d="M35 0H5C2.2425 0 0 2.2425 0 5V35C0 37.7575 2.2425 40 5 40H20H27.5H35C37.7575 40 40 37.7575 40 35V5C40 2.2425 37.7575 0 35 0ZM7.63672 9H32.3633C33.8248 9 35 10.1898 35 11.6367V27.457C35 28.9201 33.8079 30.0938 32.3633 30.0938H7.63672C6.18857 30.0938 5 28.9151 5 27.457V11.6367C5 10.1872 6.1799 9 7.63672 9ZM21.8645 20.834L31.994 10.7578H8.00598L18.1339 20.8324C18.6336 21.332 19.2957 21.6063 20 21.6063C20.7043 21.6063 21.3664 21.3321 21.8645 20.834ZM6.75781 11.9956V27.0993L14.3538 19.5516L6.75781 11.9956ZM15.6001 20.7912L8.00709 28.3359H31.9929L24.3999 20.7912L23.1058 22.0786C22.2774 22.907 21.1738 23.3641 20 23.3641C18.8262 23.3641 17.7226 22.907 16.8926 22.077L15.6001 20.7912ZM25.6462 19.5516L33.2422 27.0993V11.9956L25.6462 19.5516Z" fill="url(#paint0_linear)"/>
<defs>
<linearGradient id="paint0_linear" x1="1.84985e-07" y1="18.3086" x2="40" y2="18.3086" gradientUnits="userSpaceOnUse">
<stop stop-color="#AA34C8"/>
<stop offset="1" stop-color="#80CEF6"/>
</linearGradient>
</defs>
</svg>
