<svg width="40" height="40" viewBox="0 0 40 40" fill="none" xmlns="http://www.w3.org/2000/svg">
<path fill-rule="evenodd" clip-rule="evenodd" d="M35 0H5C2.2425 0 0 2.2425 0 5V35C0 37.7575 2.2425 40 5 40H20H27.5H35C37.7575 40 40 37.7575 40 35V5C40 2.2425 37.7575 0 35 0ZM30.3873 31.4305L34.9145 9.36696C35.3163 7.42221 34.2381 6.66092 33.0059 7.13846L6.39189 17.7342C4.57699 18.4678 4.60378 19.5198 6.08382 19.9973L12.888 22.1982L28.693 11.9138C29.4363 11.4017 30.1128 11.6854 29.5569 12.1976L16.7723 24.136L16.2767 31.3959C16.9866 31.3959 17.2946 31.0776 17.663 30.6969L20.9914 27.3888L27.8893 32.6417C29.1551 33.3753 30.0458 32.9877 30.3873 31.4305Z" fill="url(#paint0_linear)"/>
<defs>
<linearGradient id="paint0_linear" x1="1.84985e-07" y1="18.3086" x2="40" y2="18.3086" gradientUnits="userSpaceOnUse">
<stop stop-color="#AA34C8"/>
<stop offset="1" stop-color="#80CEF6"/>
</linearGradient>
</defs>
</svg>
