<svg width="40" height="40" viewBox="0 0 40 40" fill="none" xmlns="http://www.w3.org/2000/svg">
<path fill-rule="evenodd" clip-rule="evenodd" d="M3 0C1.34315 0 0 1.34315 0 3V37C0 38.6569 1.34315 40 3 40H37C38.6569 40 40 38.6569 40 37V3C40 1.34315 38.6569 0 37 0H3ZM24.8635 21.5278C26.1757 22.5909 27.6199 23.244 29.1612 23.244C31.2371 23.244 32.9312 21.5487 32.9381 19.4711C32.9381 17.3867 31.2441 15.6913 29.1612 15.6913C26.384 15.6913 25.4815 18.3733 25.1968 19.9714L25.1829 20.027L24.8635 21.5278ZM21.7462 17.9634C22.864 14.1696 25.6134 11.8628 29.1612 11.8628C33.3478 11.8628 36.7568 15.2744 36.7568 19.4572C36.7568 23.647 33.3478 27.0795 29.1612 27.0795C27.2033 27.0795 25.4953 26.4819 24.0096 25.53L22.3155 33.5135H18.4066L20.7464 22.5075C19.6425 21.1179 18.7329 19.5545 17.99 18.0051V19.6726C17.99 23.7443 14.6783 27.0864 10.6097 27.0864C6.54117 27.0864 3.2294 23.7443 3.24328 19.6726V9.72973H7.06189V19.6726C7.06189 21.632 8.65876 23.2301 10.6167 23.2301C12.5746 23.2301 14.1714 21.632 14.1714 19.6726V9.72973H17.99C18.7468 12.3214 20.0382 15.3995 21.7462 17.9634Z" fill="url(#paint0_linear)"/>
<defs>
<linearGradient id="paint0_linear" x1="1.84985e-07" y1="18.3086" x2="40" y2="18.3086" gradientUnits="userSpaceOnUse">
<stop stop-color="#AA34C8"/>
<stop offset="1" stop-color="#80CEF6"/>
</linearGradient>
</defs>
</svg>
