<svg width="40" height="40" viewBox="0 0 40 40" fill="none" xmlns="http://www.w3.org/2000/svg">
<path fill-rule="evenodd" clip-rule="evenodd" d="M35 0H5C2.2425 0 0 2.2425 0 5V35C0 37.7575 2.2425 40 5 40H20H27.5H35C37.7575 40 40 37.7575 40 35V5C40 2.2425 37.7575 0 35 0ZM22.1298 35C26.5956 35.0073 30.9074 33.4631 34.2397 30.663L34.2678 20.207H29.8819V29.1049C27.6741 30.5725 25.0141 31.3136 22.3139 31.2133C18.9459 31.2797 15.6831 30.1071 13.2182 27.9446C12.0348 26.9494 11.0879 25.7301 10.4396 24.3664C9.79131 23.0027 9.45619 21.5254 9.45619 20.0313C9.45619 18.5371 9.79131 17.0598 10.4396 15.6961C11.0879 14.3324 12.0348 13.1131 13.2182 12.118C15.6907 9.96924 18.9502 8.80499 22.3139 8.86911C25.5805 8.87353 28.7203 10.0316 31.7334 12.3434L35 9.7642C30.9966 6.59049 26.7585 5.00363 22.2857 5.00363C17.7498 4.91383 13.3554 6.49318 10.0361 9.40617C8.45166 10.7414 7.18414 12.3764 6.31635 14.2044C5.44855 16.0324 5 18.0123 5 20.0147C5 22.0171 5.44855 23.9969 6.31635 25.825C7.18414 27.653 8.45166 29.288 10.0361 30.6232C13.358 33.4343 17.664 34.9926 22.1298 35Z" fill="url(#paint0_linear)"/>
<defs>
<linearGradient id="paint0_linear" x1="1.84985e-07" y1="18.3086" x2="40" y2="18.3086" gradientUnits="userSpaceOnUse">
<stop stop-color="#AA34C8"/>
<stop offset="1" stop-color="#80CEF6"/>
</linearGradient>
</defs>
</svg>
